# xmcd
#
# Track frame offsets: 
#        150
#        13865
#        24216
#        34322
#        47281
#        66805
#        92258
#        105822
#        119233
#        131242
#        140126
#        152072
#        163260
#        173486
#        183698
#        193534
#        203656
#        214748
#        226143
#        236527
#        246098
#        255942
#        268143
#        278574
#        293837
#
# Disc length: 4038 seconds
#
# Revision: 2
# Processed by: cddbd v1.5.2PL0 Copyright (c) Steve Scherf et al.
# Submitted via: ExactAudioCopyFreeDBPlugin 1.0
#
DISCID=5c0fc419
DTITLE=Jim Reeves - Welcome To My World - CD 08
DYEAR=2001
DGENRE=Country
TTITLE0=Trouble In The Amen Corner
TTITLE1=I'm Waiting For Ships That Never Come In
TTITLE2=The Farmer And The Lord
TTITLE3=The Gun
TTITLE4=(Far Away Feeling) The Spell Of The Yukon
TTITLE5=The Shifting Whispering Sands
TTITLE6=Seven Days
TTITLE7=Old Tige
TTITLE8=Annabel Lee
TTITLE9=Why Do I Love You (Melody Of Love)
TTITLE10=Too Many Parties And Too Many Pals
TTITLE11=Men With Broken Hearts
TTITLE12=What Would You Do?
TTITLE13=Stand At Your Window
TTITLE14=Somewhere Along The Line
TTITLE15=Missing Angel
TTITLE16=(How Can I Write On Paper) What I Feel In My Heart
TTITLE17=I Never Pass There Anymore
TTITLE18=Losing Your Love
TTITLE19=A Railroad Bum
TTITLE20=When Two Worlds Collide
TTITLE21=A Fallen Star
TTITLE22=Most Of The Time
TTITLE23=Blue Side Of Lonesome
TTITLE24=I Won't Forget You
EXTD=
EXTT0=
EXTT1=
EXTT2=
EXTT3=
EXTT4=
EXTT5=
EXTT6=
EXTT7=
EXTT8=
EXTT9=
EXTT10=
EXTT11=
EXTT12=
EXTT13=
EXTT14=
EXTT15=
EXTT16=
EXTT17=
EXTT18=
EXTT19=
EXTT20=
EXTT21=
EXTT22=
EXTT23=
EXTT24=
PLAYORDER=
